<svg id="Layer_1" data-name="Layer 1" xmlns="http://www.w3.org/2000/svg" viewBox="0 0 504.42 464.46"><defs><style>.cls-1{fill:#f47621;}.cls-2{fill:#190d3a;}</style></defs><title>bat</title><circle class="cls-1" cx="252.21" cy="232.23" r="202.16"/><path class="cls-2" d="M1419.31,761.87l-0.22-1.58-1.52-.51a157,157,0,0,1-20.14-8.19l-5.1-2.55,1.47,5.51a50.92,50.92,0,0,0,12.25,21.89,90.69,90.69,0,0,0,15.37,12.82l6.75,4.51-2.93-7.58A109.13,109.13,0,0,1,1419.31,761.87Zm-9.53,11h0a45.72,45.72,0,0,1-9.14-14.12c4.26,1.89,8.88,3.68,13.8,5.37a124.79,124.79,0,0,0,3.43,16.15A81.05,81.05,0,0,1,1409.78,772.9Z" transform="translate(-1269.69 -359.27)"/><path class="cls-2" d="M1539.32,736.2l-0.69-.47-0.84,0c-10.51.35-21.24,0.35-31.76,0l-0.84,0-0.69.47c-3.22,2.19-13.73,10.52-13.73,25.53v8l2.41,0.16c9.26,0.6,18.93.9,28.74,0.9s19.49-.3,28.74-0.9l2.41-.15v-8C1553,746.72,1542.54,738.39,1539.32,736.2Zm8.59,28.68c-8.4.49-17.14,0.74-26,.74s-17.59-.25-26-0.75v-3.13c0-11.6,7.58-18.42,10.82-20.81,10.07,0.32,20.3.32,30.37,0,3.24,2.39,10.82,9.22,10.82,20.81v3.14Z" transform="translate(-1269.69 -359.27)"/><path class="cls-2" d="M1621.14,761.45l-3.91,1.12c-17.28,4.94-36.93,8.35-58.4,10.14l-2.36.2v38.53l2.92-.4c18.75-2.59,35.33-7.3,49.26-14l0.64-.3,0.39-.59c5-7.57,8.68-17.9,10.79-30.7Zm-15.35,31.27c-12.59,6-27.44,10.25-44.17,12.8V777.63a315.6,315.6,0,0,0,53.06-9C1612.7,778.51,1609.72,786.61,1605.8,792.72Z" transform="translate(-1269.69 -359.27)"/><path class="cls-2" d="M1626.24,759.78l-1.52.51-0.22,1.58a109,109,0,0,1-5.95,24.33l-2.93,7.58,6.76-4.51a90.7,90.7,0,0,0,15.37-12.82A50.92,50.92,0,0,0,1650,754.55l1.47-5.51-5.1,2.55A156.91,156.91,0,0,1,1626.24,759.78Zm7.8,13.12a81.11,81.11,0,0,1-8.08,7.4,124.87,124.87,0,0,0,3.43-16.15c4.92-1.69,9.54-3.48,13.8-5.37A45.75,45.75,0,0,1,1634,772.9Z" transform="translate(-1269.69 -359.27)"/><path class="cls-2" d="M1556.48,761.73v7.72l2.79-.24c22.47-1.94,42.88-5.67,60.65-11.09l1.64-.5,0.17-1.71a205.23,205.23,0,0,0,.63-29.72l-0.17-3.26-3.13.92c-20.12,5.93-43.43,9.74-69.27,11.32l-5.22.32,3.45,3.94A33,33,0,0,1,1556.48,761.73Zm60.89-32a200.12,200.12,0,0,1-.59,24,291,291,0,0,1-55.15,10.14v-2.1a38.26,38.26,0,0,0-6.68-21.73C1577.93,738.33,1598.9,734.87,1617.37,729.71Z" transform="translate(-1269.69 -359.27)"/><path class="cls-2" d="M1499.24,735.51l-5.22-.32c-25.84-1.58-49.14-5.39-69.26-11.32l-3.13-.92-0.17,3.26a206,206,0,0,0,.63,29.66l0.17,1.71,1.64,0.5c17.81,5.43,38.22,9.18,60.65,11.12l2.79,0.24v-7.7a33,33,0,0,1,8.46-22.29Zm-17,26.23v2.09A291.59,291.59,0,0,1,1427,753.65a200.9,200.9,0,0,1-.59-23.94c18.47,5.17,39.43,8.62,62.42,10.29A38.26,38.26,0,0,0,1482.19,761.73Z" transform="translate(-1269.69 -359.27)"/><path class="cls-2" d="M1414.87,755.09l3.74,1.34-0.31-4a203.19,203.19,0,0,1-.16-28.64l0.13-2-1.87-.64a150.07,150.07,0,0,1-20.6-8.63l-3.76-2v30.6c0,0.7,0,1.4,0,2.11l0.06,1.41,1.22,0.71A131.56,131.56,0,0,0,1414.87,755.09ZM1397.19,719a161,161,0,0,0,15.7,6.42,211,211,0,0,0,0,23.43,125,125,0,0,1-15.71-7.16q0-.24,0-0.48V719Z" transform="translate(-1269.69 -359.27)"/><path class="cls-2" d="M1521.91,774.18c-9.69,0-19.25-.29-28.41-0.86l-2.73-.17v38.68l2.31,0.23c9.08,0.92,18.78,1.38,28.83,1.38s19.75-.46,28.83-1.38l2.31-.23V773.15l-2.73.17C1541.15,773.9,1531.6,774.18,1521.91,774.18Zm26,33c-8.24.75-17,1.13-26,1.13s-17.76-.38-26-1.13V778.62c8.43,0.47,17.16.71,26,.71s17.57-.24,26-0.71v28.55Z" transform="translate(-1269.69 -359.27)"/><path class="cls-2" d="M1426.58,762.57l-3.91-1.12,0.66,4c2.12,12.8,5.74,23.13,10.78,30.69l0.39,0.59,0.64,0.31c13.93,6.69,30.51,11.4,49.26,14l2.92,0.4V772.9l-2.36-.2C1463.51,770.91,1443.86,767.5,1426.58,762.57Zm55.61,42.95c-16.74-2.54-31.58-6.84-44.17-12.8-3.92-6.1-6.9-14.2-8.88-24.11a315.57,315.57,0,0,0,53.05,9v27.89Z" transform="translate(-1269.69 -359.27)"/><path class="cls-2" d="M1627.41,721.22l-1.87.64,0.13,2a203.44,203.44,0,0,1-.17,28.69l-0.31,4,3.74-1.34a129.55,129.55,0,0,0,21.51-9.67l1.21-.71,0.06-1.4c0-.71.05-1.41,0.05-2.12v-30.6l-3.76,2A150.12,150.12,0,0,1,1627.41,721.22Zm19.21,20c0,0.17,0,.33,0,0.5a123,123,0,0,1-15.71,7.19,211.08,211.08,0,0,0,0-23.49,161,161,0,0,0,15.7-6.42v22.21Z" transform="translate(-1269.69 -359.27)"/><path class="cls-2" d="M1765.79,381.9a8.79,8.79,0,0,0-12.42,0l-34.6,34.6c-11.13,11.13-28.5,8.5-31,8.06a17.59,17.59,0,0,0-20.71,3.06l-61.51,61.51c-22.16-18.37-50.23-27.68-83.63-27.68s-61.47,9.3-83.63,27.68l-61.51-61.51a17.59,17.59,0,0,0-20.71-3.06c-2.5.45-19.87,3.07-31-8.05l-34.6-34.6a8.79,8.79,0,0,0-12.42,0l-5.76,5.76a8.8,8.8,0,0,0,0,12.42l34.61,34.61c11.12,11.13,8.5,28.5,8,31A17.6,17.6,0,0,0,1318,486.4l75.11,75.11c-1.44,4.63-2.67,9.14-3.73,13.48-5.76,3.81-12.45,8.56-13.54,10.73s-2.13,15-2.62,22.41l-0.06.94,0.56,0.76a18,18,0,0,0,9.2,6.21c-0.63,8.13-.71,14.24-0.7,17.39a12.27,12.27,0,0,0-7.82,5.36l-5.29,8.2a9.17,9.17,0,0,0-.35,9.48,9.59,9.59,0,0,0,8.44,5h4.59v79.79a61.09,61.09,0,0,0,16.84,42.29c17.44,18.34,53,40.21,123.31,40.21s105.87-21.86,123.31-40.21a61.1,61.1,0,0,0,16.84-42.29V661.45h4.59a9.59,9.59,0,0,0,8.44-5,9.17,9.17,0,0,0-.35-9.48l-5.29-8.2a12.27,12.27,0,0,0-7.82-5.36c0-3.16-.07-9.26-0.7-17.39a18,18,0,0,0,9.2-6.21l0.56-.76-0.06-.94c-0.49-7.4-1.49-20.14-2.62-22.41s-7.78-6.92-13.54-10.73c-1.06-4.34-2.29-8.85-3.73-13.48l75.11-75.11a17.6,17.6,0,0,0,3.05-20.71c-0.45-2.5-3.08-19.87,8-31l34.61-34.61a8.8,8.8,0,0,0,0-12.42Zm-70.62,48.42a46.43,46.43,0,0,0,11.08-1.31l-6.47,6.47-5.17-5.17h0.57Zm-346.53,0h0.57l-5.17,5.17-6.47-6.47A46.43,46.43,0,0,0,1348.64,430.32Zm-72.74-33.88a3.65,3.65,0,0,1,0-5.15l5.76-5.76a3.65,3.65,0,0,1,5.15,0l53.59,53.59L1329.49,450Zm50,57.22-5.17,5.17a46.65,46.65,0,0,0-1.3-11.63Zm-4.24,29.09a12.46,12.46,0,0,1-2-15,12.29,12.29,0,0,1,2-2.62l7.88-7.88h0l18.18-18.18h0l7.88-7.88a12.65,12.65,0,0,1,2.63-2,12.45,12.45,0,0,1,15,2l61.25,61.25q-2.89,2.62-5.64,5.45c-0.67.69-1.32,1.39-2,2.09l-57.28-57.28a2.14,2.14,0,1,0-3,3l57.46,57.46a149.4,149.4,0,0,0-23.12,37.5l-64.64-64.65a2.14,2.14,0,1,0-3,3L1399,545c-1.51,3.7-2.88,7.39-4.12,11Zm56.79,124.67c0.57-8.27,1.47-17.61,2-19.38a54.23,54.23,0,0,1,7.26-5.69c-0.27,1.27-.52,2.53-0.76,3.75-1.76,9.11-2.88,17.5-3.58,24.7A12.92,12.92,0,0,1,1378.4,607.43Zm278.51,133.8A56,56,0,0,1,1641.49,780c-16.75,17.61-51.09,38.61-119.58,38.61s-102.83-21-119.58-38.61a56,56,0,0,1-15.42-38.75V661.45H1392v45.08l1.28,0.74c10.2,5.94,49.6,25.32,128.58,25.32,79.31,0,118.48-19.37,128.59-25.31l1.27-.74V661.45h5.14v79.79ZM1461.13,676h121.55c5.9,0,11.14-2.73,13.06-6.8l3.66-7.77h47.23v42.12c-11.57,6.47-49.72,23.88-124.72,23.88-74.69,0-113.05-17.42-124.72-23.9v-42.1h47.23l3.66,7.77C1450,673.28,1455.23,676,1461.13,676Zm-11-14.57h143.61l-2.63,5.58c-1,2.23-4.58,3.85-8.41,3.85H1461.13c-3.82,0-7.36-1.62-8.41-3.85Zm215-19.86,5.29,8.2a4,4,0,0,1,.16,4.23,4.39,4.39,0,0,1-3.93,2.29H1377.17a4.39,4.39,0,0,1-3.93-2.29,4,4,0,0,1,.16-4.23l5.29-8.2a7.21,7.21,0,0,1,6.11-3.28H1659A7.21,7.21,0,0,1,1665.12,641.58ZM1663.39,588c0.56,1.78,1.44,11,2,19.38a13,13,0,0,1-4.95,3.38c-0.7-7.2-1.81-15.59-3.58-24.7-0.24-1.23-.49-2.48-0.76-3.75A54.19,54.19,0,0,1,1663.39,588Zm-6.93,45.11H1387.34c0-14.34,2.32-87.4,45.09-131.63a109.51,109.51,0,0,1,30.16-22.12,14.8,14.8,0,0,1,3.34,1.5l10.26,36.54-6.1-37.49a16.6,16.6,0,0,1,2.73-3.58,27.53,27.53,0,0,1,2.84-2.46q20.9-7.31,46.24-7.33t46.24,7.33a27.53,27.53,0,0,1,2.84,2.46,16.6,16.6,0,0,1,2.73,3.58l-6.1,37.49,10.26-36.54a14.8,14.8,0,0,1,3.34-1.5,109.5,109.5,0,0,1,30.14,22.1C1654.12,545.71,1656.44,618.82,1656.47,633.16Zm65.74-150.4L1648.94,556c-1.24-3.64-2.61-7.32-4.12-11l65.86-65.87a2.14,2.14,0,1,0-3-3L1643,540.75a149.41,149.41,0,0,0-23.12-37.5l57.46-57.46a2.14,2.14,0,0,0-3-3L1617,500c-0.65-.7-1.3-1.4-2-2.09q-2.75-2.84-5.64-5.45l61.26-61.25a12.44,12.44,0,0,1,14.94-2,12.68,12.68,0,0,1,2.64,2l7.88,7.88h0l18.18,18.18h0l7.88,7.88a12.32,12.32,0,0,1,2,2.63A12.45,12.45,0,0,1,1722.21,482.76ZM1718,453.67l6.46-6.46a46.65,46.65,0,0,0-1.3,11.63Zm50-57.22L1714.32,450l-10.91-10.91L1757,385.54a3.65,3.65,0,0,1,5.15,0l5.76,5.76A3.65,3.65,0,0,1,1767.91,396.45Z" transform="translate(-1269.69 -359.27)"/><path class="cls-2" d="M1755.92,391.93a1.29,1.29,0,1,0-1.82,1.82l5.61,5.61a1.29,1.29,0,1,0,1.82-1.82Z" transform="translate(-1269.69 -359.27)"/><path class="cls-2" d="M1749.25,398.59a1.29,1.29,0,1,0-1.82,1.82L1753,406a1.29,1.29,0,0,0,1.82-1.82Z" transform="translate(-1269.69 -359.27)"/><path class="cls-2" d="M1742.58,405.26a1.29,1.29,0,1,0-1.82,1.82l5.61,5.61a1.29,1.29,0,0,0,1.82-1.82Z" transform="translate(-1269.69 -359.27)"/><path class="cls-2" d="M1735.91,411.93a1.29,1.29,0,0,0-1.82,1.82l5.61,5.61a1.29,1.29,0,1,0,1.82-1.82Z" transform="translate(-1269.69 -359.27)"/><path class="cls-2" d="M1729.25,418.59a1.29,1.29,0,0,0-1.82,1.82L1733,426a1.29,1.29,0,0,0,1.82-1.82Z" transform="translate(-1269.69 -359.27)"/><path class="cls-2" d="M1722.58,425.26a1.29,1.29,0,1,0-1.82,1.82l5.61,5.61a1.29,1.29,0,0,0,1.82-1.82Z" transform="translate(-1269.69 -359.27)"/><path class="cls-2" d="M1715.91,431.93a1.29,1.29,0,0,0-1.82,1.82l5.61,5.61a1.29,1.29,0,0,0,1.82-1.82Z" transform="translate(-1269.69 -359.27)"/><path class="cls-2" d="M1289.71,391.93a1.29,1.29,0,0,0-1.82,0l-5.61,5.61a1.29,1.29,0,1,0,1.82,1.82l5.61-5.61A1.29,1.29,0,0,0,1289.71,391.93Z" transform="translate(-1269.69 -359.27)"/><path class="cls-2" d="M1296.38,398.59a1.29,1.29,0,0,0-1.82,0L1289,404.2a1.29,1.29,0,1,0,1.82,1.82l5.61-5.61A1.29,1.29,0,0,0,1296.38,398.59Z" transform="translate(-1269.69 -359.27)"/><path class="cls-2" d="M1303,405.26a1.29,1.29,0,0,0-1.82,0l-5.61,5.61a1.29,1.29,0,1,0,1.82,1.82l5.61-5.61A1.29,1.29,0,0,0,1303,405.26Z" transform="translate(-1269.69 -359.27)"/><path class="cls-2" d="M1309.72,411.93a1.29,1.29,0,0,0-1.82,0l-5.61,5.61a1.29,1.29,0,1,0,1.82,1.82l5.61-5.61A1.29,1.29,0,0,0,1309.72,411.93Z" transform="translate(-1269.69 -359.27)"/><path class="cls-2" d="M1316.38,418.59a1.29,1.29,0,0,0-1.82,0L1309,424.2a1.29,1.29,0,1,0,1.82,1.82l5.61-5.61A1.29,1.29,0,0,0,1316.38,418.59Z" transform="translate(-1269.69 -359.27)"/><path class="cls-2" d="M1323,425.26a1.29,1.29,0,0,0-1.82,0l-5.61,5.61a1.29,1.29,0,1,0,1.82,1.82l5.61-5.61A1.29,1.29,0,0,0,1323,425.26Z" transform="translate(-1269.69 -359.27)"/><path class="cls-2" d="M1329.72,431.93a1.29,1.29,0,0,0-1.82,0l-5.61,5.61a1.29,1.29,0,1,0,1.82,1.82l5.61-5.61A1.29,1.29,0,0,0,1329.72,431.93Z" transform="translate(-1269.69 -359.27)"/><path class="cls-2" d="M1521.91,445.34a43,43,0,1,0-43-43A43.08,43.08,0,0,0,1521.91,445.34Zm10.52-79.42a37.6,37.6,0,0,1,5.26,2c-0.13.79-.28,1.79-0.44,3a0.86,0.86,0,0,0,.73,1h0.12a0.86,0.86,0,0,0,.85-0.74c0.13-.93.25-1.73,0.35-2.42a37.85,37.85,0,0,1,3.28,65.36c-0.24-.72-0.47-1.45-0.7-2.19a0.86,0.86,0,1,0-1.64.49q0.4,1.33.84,2.62a37.77,37.77,0,0,1-5,2.46C1527.17,410.08,1530.8,377,1532.43,365.91Zm-10.52-1.5a37.87,37.87,0,0,1,8,.86c-1.63,11.09-5.44,45,3.79,73a37.76,37.76,0,0,1-23.61,0c9.23-28.07,5.42-61.93,3.79-73A37.87,37.87,0,0,1,1521.91,364.42Zm-17.4,4.25c0.11,0.69.22,1.49,0.35,2.42a0.86,0.86,0,0,0,.85.74h0.12a0.86,0.86,0,0,0,.73-1c-0.16-1.19-.31-2.18-0.44-3a37.59,37.59,0,0,1,5.26-2c1.62,11.13,5.26,44.16-3.7,71.5a37.77,37.77,0,0,1-5-2.46q0.44-1.3.84-2.62a0.86,0.86,0,1,0-1.64-.49c-0.22.74-.46,1.47-0.7,2.19A37.85,37.85,0,0,1,1504.51,368.66Z" transform="translate(-1269.69 -359.27)"/><path class="cls-2" d="M1504.71,424.37l0.17,0a0.86,0.86,0,0,0,.84-0.69c0.57-2.8,1.05-5.74,1.43-8.75a0.86,0.86,0,1,0-1.7-.21c-0.37,3-.85,5.87-1.41,8.62A0.86,0.86,0,0,0,1504.71,424.37Z" transform="translate(-1269.69 -359.27)"/><path class="cls-2" d="M1507.26,389.35h0a0.86,0.86,0,0,0,.82-0.89c-0.12-2.92-.32-5.89-0.57-8.82a0.86,0.86,0,1,0-1.71.15c0.26,2.91.45,5.85,0.57,8.74A0.86,0.86,0,0,0,1507.26,389.35Z" transform="translate(-1269.69 -359.27)"/><path class="cls-2" d="M1507.42,396.43a0.88,0.88,0,0,0-.86.85c0,3-.12,5.91-0.3,8.75a0.86,0.86,0,0,0,.8.91h0.05a0.86,0.86,0,0,0,.85-0.8c0.18-2.86.28-5.84,0.3-8.84A0.86,0.86,0,0,0,1507.42,396.43Z" transform="translate(-1269.69 -359.27)"/><path class="cls-2" d="M1536.52,389.35h0a0.86,0.86,0,0,0,.86-0.82c0.12-2.9.31-5.84,0.57-8.74a0.86,0.86,0,0,0-1.71-.15c-0.26,2.93-.45,5.9-0.57,8.82A0.86,0.86,0,0,0,1536.52,389.35Z" transform="translate(-1269.69 -359.27)"/><path class="cls-2" d="M1536.75,406.94a0.86,0.86,0,0,0,.8-0.91c-0.18-2.84-.28-5.78-0.3-8.75a0.89,0.89,0,0,0-.86-0.85,0.86,0.86,0,0,0-.85.86c0,3,.12,6,0.3,8.84a0.86,0.86,0,0,0,.85.8h0.05Z" transform="translate(-1269.69 -359.27)"/><path class="cls-2" d="M1537.4,414a0.86,0.86,0,0,0-.74,1c0.38,3,.86,6,1.43,8.75a0.86,0.86,0,0,0,.84.69l0.17,0a0.86,0.86,0,0,0,.67-1c-0.56-2.76-1-5.66-1.41-8.62A0.85,0.85,0,0,0,1537.4,414Z" transform="translate(-1269.69 -359.27)"/></svg>